Act 1: Jerusalem

    'Thus saith the Lord, Behold, I shall deliver this city into the hand of the King of Babylon, and he will burn it with fire' (Jeremiah 21:10) 



Act 2: The Unbeliever

    'Behold, the whirlwind of the Lord goeth forth, it shall fall upon the head of the wicked' (Jeremiah 30:23) 



Act 3: The Prophecy

    'Therefore the wild beasts of the desert with the wild beasts of the islands shall dwell there, and the owls shall dwell therein'. (Jeremiah 50:39



Act 4: The Shattered Idol

    'Bel is confounded, Merodach is broken in pieces; her idols are confounded, her images are broken in pieces.' (Jeremiah 50:2) 




Director:
Brian Large



        Renato Bruson	 ... 	Nabucco (Nabucodonosor)
	Bruno Beccaria	... 	Ismaele
	Paata Burchuladze	... 	Zaccaria
	Ghena Dimitrova	... 	Abigaille
	Raquel Pierotti	... 	Fenena


 
http://en.wikipedia.org/wiki/Nabucco

 
http://www.imdb.com/title/tt0253271/



 Video #2
      ID : 2
      Format : VC-1
      Format profile : MP@ML
      Codec ID : WMV3
      Codec ID/Info : Windows Media Video 9
      Codec ID/Hint : WMV3
      Duration : 2h 19mn
      Bit rate mode : Variable
      Bit rate : 1 000 Kbps
      Width : 640 pixels
      Height : 480 pixels
      Display aspect ratio : 4/3
      Frame rate : 25.000 fps
      Resolution : 24 bits
      Scan type : Progressive
      Bits/(Pixel*Frame) : 0.130
      Stream size : 999 MiB (90%)
   Audio #1
      ID : 1
      Format : WMA2
      Format profile : L
      Codec ID : 161
      Codec ID/Info : Windows Media Audio 2
      Description of the codec : Windows Media Audio 9.2 -  96 kbps, 44 kHz, stereo 2-pass VBR
      Duration : 2h 19mn
      Bit rate mode : Variable
      Bit rate : 95.9 Kbps
      Channel(s) : 2 channels
      Sampling rate : 44.1 KHz
      Resolution : 16 bits
      Stream size : 95.8 MiB (9%)




     Please seed at least as much as you D/L.
     =======================================
     Thanks 

     John